<svg width="40" height="14" viewBox="0 0 40 14" fill="none" xmlns="http://www.w3.org/2000/svg">
<g clip-path="url(#clip0_1_47)">
<path fill-rule="evenodd" clip-rule="evenodd" d="M26.4873 6.71673C26.4873 10.4261 23.4799 13.4335 19.7701 13.4335C16.0603 13.4335 13.0538 10.4261 13.0538 6.71673C13.0538 3.00735 16.0608 0 19.7706 0C23.4803 0 26.4869 3.00735 26.4869 6.71673H26.4873ZM6.89872 0.639592C6.9268 0.590939 6.9672 0.550536 7.01585 0.522446C7.0645 0.494355 7.11968 0.479566 7.17586 0.479566C7.23204 0.479566 7.28722 0.494355 7.33587 0.522446C7.38452 0.550536 7.42492 0.590939 7.453 0.639592L14.3085 12.5143C14.3366 12.5629 14.3514 12.6181 14.3514 12.6743C14.3514 12.7305 14.3366 12.7856 14.3085 12.8343C14.2804 12.8829 14.24 12.9233 14.1914 12.9514C14.1427 12.9795 14.0875 12.9943 14.0314 12.9943H0.32035C0.264177 12.9943 0.208993 12.9795 0.160345 12.9514C0.111697 12.9233 0.0712989 12.8829 0.0432112 12.8343C0.0151236 12.7856 0.00033634 12.7305 0.000335693 12.6743C0.000335047 12.6181 0.0151211 12.5629 0.0432076 12.5143L6.89872 0.639592ZM28.0057 0.4C27.6526 0.4 27.3661 0.686531 27.3661 1.04V12.3943C27.3661 12.7478 27.6526 13.0339 28.0057 13.0339H39.3603C39.7134 13.0339 39.9999 12.7478 39.9999 12.3943V1.03959C39.9999 0.686122 39.7134 0.399592 39.3603 0.399592L28.0057 0.4Z" fill="black"/>
</g>
<defs>
<clipPath id="clip0_1_47">
<rect width="40" height="13.4694" fill="white"/>
</clipPath>
</defs>
</svg>
