<svg width="32" height="32" viewBox="0 0 32 32" fill="none" xmlns="http://www.w3.org/2000/svg">
<path d="M32 16C32 24.8361 24.8361 32 16 32C7.16395 32 0 24.8361 0 16C0 7.16395 7.16395 0 16 0C24.8379 0 32 7.16395 32 16Z" fill="black"/>
<path d="M7.89373 16.5376L7.96277 16.4291L12.125 9.91783C12.1858 9.82247 12.3289 9.83235 12.3749 9.93589C13.0702 11.4943 13.6702 13.4324 13.3891 14.639C13.2691 15.1354 12.9404 15.8077 12.5705 16.4291C12.5228 16.5195 12.4702 16.6083 12.4143 16.6938C12.388 16.7332 12.3436 16.7563 12.296 16.7563H8.01536C7.9003 16.7563 7.83293 16.6313 7.89373 16.5376Z" fill="white"/>
<path d="M26.4462 17.7475V18.7782C26.4462 18.8374 26.4101 18.89 26.3575 18.913C26.0353 19.0511 24.9322 19.5574 24.4736 20.1952C23.3032 21.8242 22.4089 24.1536 20.41 24.1536H12.0708C9.11509 24.1536 6.72 21.7503 6.72 18.7848V18.6894C6.72 18.6105 6.78411 18.5464 6.86304 18.5464H11.5118C11.6039 18.5464 11.6713 18.6319 11.6631 18.7223C11.6302 19.0248 11.6861 19.3338 11.8291 19.6149C12.1053 20.1755 12.6773 20.5256 13.2954 20.5256H15.5968V18.7289H13.3217C13.205 18.7289 13.136 18.5941 13.2034 18.4987C13.228 18.4609 13.256 18.4215 13.2855 18.3771C13.5009 18.0714 13.8083 17.5963 14.1141 17.0554C14.3228 16.6905 14.525 16.3009 14.6878 15.9097C14.7206 15.839 14.747 15.7667 14.7732 15.696C14.8176 15.5711 14.8636 15.4543 14.8965 15.3376C14.9294 15.239 14.9557 15.1354 14.982 15.0384C15.0593 14.7064 15.0922 14.3546 15.0922 13.9897C15.0922 13.8467 15.0856 13.6971 15.0724 13.554C15.0659 13.3979 15.0461 13.2417 15.0264 13.0855C15.0132 12.9475 14.9886 12.811 14.9623 12.668C14.9294 12.4592 14.8834 12.2521 14.8308 12.0433L14.8127 11.9644C14.7732 11.8214 14.7404 11.685 14.6943 11.542C14.5645 11.0932 14.4149 10.6559 14.2571 10.2466C14.1995 10.0839 14.1338 9.92772 14.068 9.77156C13.971 9.53646 13.8724 9.32277 13.782 9.12057C13.736 9.02852 13.6965 8.94468 13.6571 8.8592C13.6127 8.76221 13.5666 8.66525 13.5206 8.57316C13.4878 8.50247 13.4499 8.43673 13.4236 8.37099L13.1425 7.85152C13.1031 7.78084 13.1689 7.697 13.2461 7.71837L15.005 8.19509H15.01C15.0132 8.19509 15.0149 8.19673 15.0165 8.19673L15.2483 8.26084L15.5031 8.33316L15.5968 8.35947V7.31399C15.5968 6.80932 16.0012 6.4 16.5009 6.4C16.7508 6.4 16.9776 6.5019 17.1404 6.66795C17.3031 6.83399 17.405 7.06084 17.405 7.31399V8.86578L17.5924 8.91837C17.6073 8.92331 17.622 8.92989 17.6352 8.93973C17.6812 8.97426 17.747 9.02525 17.8308 9.08768C17.8966 9.1403 17.9673 9.20441 18.0527 9.27015C18.222 9.40661 18.4242 9.58251 18.6462 9.78468C18.7053 9.83566 18.7629 9.88825 18.8155 9.94087C19.1015 10.2071 19.422 10.5195 19.7278 10.8647C19.8133 10.9617 19.8971 11.0603 19.9826 11.1639C20.0681 11.2691 20.1585 11.3727 20.2374 11.4762C20.341 11.6143 20.4527 11.7573 20.5497 11.9069C20.5958 11.9776 20.6484 12.0499 20.6928 12.1206C20.8177 12.3097 20.9278 12.5053 21.033 12.7009C21.0774 12.7913 21.1234 12.8899 21.1629 12.9869C21.2796 13.2483 21.3717 13.5146 21.4308 13.7809C21.4489 13.8384 21.4621 13.9009 21.4687 13.9568V13.9699C21.4884 14.0489 21.4949 14.1327 21.5015 14.2182C21.5278 14.491 21.5147 14.7639 21.4555 15.0384C21.4308 15.1552 21.398 15.2653 21.3585 15.382C21.319 15.4938 21.2796 15.6105 21.2287 15.7206C21.13 15.9491 21.0133 16.1776 20.8752 16.3913C20.8308 16.4702 20.7782 16.5541 20.7256 16.633C20.6681 16.7168 20.6089 16.7957 20.5563 16.873C20.484 16.9716 20.4067 17.0752 20.3278 17.1672C20.2571 17.2642 20.1848 17.3612 20.1059 17.4467C19.9958 17.5765 19.8906 17.6998 19.7804 17.8182C19.7147 17.8955 19.644 17.9744 19.5716 18.0451C19.5009 18.1239 19.4286 18.1946 19.3629 18.2604C19.2527 18.3705 19.1607 18.456 19.0834 18.5267L18.9026 18.6927C18.8763 18.7157 18.8418 18.7289 18.8056 18.7289H17.405V20.5256H19.1673C19.5618 20.5256 19.9366 20.3859 20.239 20.1295C20.3426 20.039 20.7947 19.6478 21.3289 19.0577C21.347 19.0379 21.37 19.0231 21.3963 19.0166L26.2638 17.6094C26.3542 17.5831 26.4462 17.6522 26.4462 17.7475Z" fill="white"/>
</svg>
